<svg width="15" height="18" viewBox="0 0 15 18" fill="none" xmlns="http://www.w3.org/2000/svg">
<path fill-rule="evenodd" clip-rule="evenodd" d="M13.4917 11.25V8.25C13.4917 3.75 12.5617 3.03675 10.0395 2.00625C9.75821 0.831 8.71946 0 7.49171 0C6.28271 0 5.22371 0.84825 4.94171 2.00625C2.42096 3.03675 1.49171 3.85147 1.49171 8.25V11.25C1.49171 12.2843 0 12.3554 0 13.5C0 13.6174 0 14.0745 0 14.25H15.001C15.001 14.026 15.001 13.8435 15.001 13.5C15.001 12.3971 13.4917 12.2843 13.4917 11.25Z" fill="#A3B6D9"/>
<path fill-rule="evenodd" clip-rule="evenodd" d="M9.7417 15H5.2417C5.0347 15 4.8667 15.168 4.8667 15.375C4.8667 16.8225 6.0442 18 7.4917 18C8.9392 18 10.1167 16.8225 10.1167 15.375C10.1167 15.168 9.9487 15 9.7417 15Z" fill="#A3B6D9"/>
</svg>
