<svg width="100" height="16" viewBox="0 0 100 16" fill="none" xmlns="http://www.w3.org/2000/svg">
<path fill-rule="evenodd" clip-rule="evenodd" d="M19.0543 12.3446C19.2111 12.4675 19.4122 12.5289 20.128 12.5289H23.1012C23.8169 12.549 24.0181 12.4675 24.1748 12.3446C24.376 12.1604 24.6672 11.649 24.6672 8.02464C24.6672 4.38123 24.376 3.86876 24.1748 3.70464C24.0181 3.5617 23.8169 3.49923 23.1012 3.49923H20.128C19.4122 3.49923 19.2111 3.5617 19.0543 3.70464C18.8532 3.86876 18.5631 4.38123 18.5631 8.02464C18.5631 11.668 18.8532 12.1604 19.0543 12.3446ZM24.0403 0.858521C25.5841 0.858521 26.2999 1.06499 26.8579 1.55629C27.7526 2.31229 28.4016 3.62311 28.4016 8.02464C28.4016 12.406 27.7526 13.7158 26.8579 14.4941C26.2999 14.9853 25.5841 15.1908 24.0403 15.1908H19.1878C17.6451 15.1908 16.9303 14.9853 16.3713 14.4941C15.4766 13.7158 14.8286 12.406 14.8286 8.02464C14.8286 3.62311 15.4766 2.31229 16.3713 1.55629C16.9303 1.06499 17.6451 0.858521 19.1878 0.858521H24.0403ZM9.54643 0.858944L4.80608 6.5713H3.84467V0.858944H0.200195V15.1901H3.84467V9.1093H4.85055L9.54643 15.1901H13.84L7.77925 7.59412L13.5933 0.858944H9.54643ZM41.4871 9.88743V7.21178L44.9759 13.2545V15.19H42.0239C41.197 15.19 40.8169 14.9857 40.4135 14.3313L35.0251 5.4859H34.8017V15.19H31.3139V0.858838H34.735C35.5842 0.858838 35.9421 1.04307 36.3444 1.71966L41.2637 9.88743H41.4871ZM44.6254 8.83729V6.16164H44.8488L49.7681 14.3294C50.1704 15.006 50.5283 15.1902 51.3775 15.1902H54.7985V0.85905H51.3108V10.5632H51.0874L45.699 1.71776C45.2956 1.0634 44.9155 0.85905 44.0885 0.85905H41.1365V2.79458L44.6254 8.83729ZM57.8937 15.1902H69.6329V12.5495H61.5382V9.08928H67.8445V6.5714H61.5382V3.49976H69.6329V0.85905H57.8937V15.1902ZM83.7253 14.4944C83.1662 14.9857 82.4727 15.19 80.9077 15.19H76.1229C74.5792 15.19 73.8645 14.9857 73.3054 14.4944C72.4107 13.7161 71.7627 12.4053 71.7627 8.02496C71.7627 3.62237 72.4107 2.3126 73.3054 1.55554C73.8645 1.06425 74.5792 0.858838 76.1229 0.858838H80.9077C82.4727 0.858838 83.1662 1.06425 83.7253 1.55554C84.5522 2.27237 84.9334 3.3566 84.9779 6.03966H81.4901C81.4223 4.25766 81.2212 3.86907 81.0422 3.70496C80.8855 3.56201 80.6843 3.49954 79.9686 3.49954H77.0621C76.3463 3.49954 76.1452 3.56201 75.9884 3.70496C75.7873 3.86907 75.4972 4.38049 75.4972 8.02496C75.4972 11.6684 75.7873 12.1607 75.9884 12.345C76.1452 12.4678 76.3463 12.5292 77.0621 12.5292H79.9686C80.6843 12.5493 80.8855 12.4678 81.0422 12.345C81.2212 12.1798 81.4223 11.8325 81.4901 9.84613H85.0001C84.9101 12.7335 84.5522 13.7775 83.7253 14.4944ZM94.8429 15.1908V3.52146H99.651V0.858521H86.4359V3.52146H91.1985V15.1908H94.8429Z" fill="#0A2B66"/>
</svg>
